<svg width="1200" height="420" viewBox="0 0 1200 420" fill="none" xmlns="http://www.w3.org/2000/svg">
<path fill-rule="evenodd" clip-rule="evenodd" d="M739.396 4.5199C832.9 4.51995 912.237 65.7161 912.237 179.003C912.237 245.136 871.244 345.624 753.443 353.034C772.657 357.229 791.76 363.908 818.353 372.642C854.947 384.683 882.588 390.703 904.024 390.703C937.016 390.703 960.637 380.264 966.6 359.387C966.749 358.794 967.119 358.229 967.804 358.312C968.48 358.405 968.675 359.063 968.61 359.415C965.304 381.107 934.219 420 877.699 420C860.883 420 845.586 417.425 831.827 412.256C818.057 407.097 791.954 392.907 772.028 381.265C752.101 369.631 731.387 358.841 694.635 358.841C676.255 358.841 650.791 364.824 633.133 378.977C623.216 386.933 617.188 390.712 612.604 390.712C606.669 390.712 603.697 386.331 603.697 382.043C603.697 378.125 607.243 374.096 614.335 369.955C620.91 366.102 645.578 350.449 692.552 348.217C599.826 326.034 566.556 238.579 566.556 179.003C566.556 65.7161 645.893 4.5199 739.396 4.5199ZM740.563 15.6998C678.264 15.6999 608.233 72.9968 608.233 178.708C608.233 242.812 641.402 342.159 740.563 342.159C839.724 342.159 872.893 242.812 872.893 178.708C872.893 72.9875 802.862 15.6998 740.563 15.6998Z" fill="white"/>
<path fill-rule="evenodd" clip-rule="evenodd" d="M177.845 0C179.169 0.000155352 179.845 1.21346 180.567 2.899L306.618 301.294C317.749 327.238 329.222 334.046 341.018 334.046C347.343 334.046 355.89 330.507 359.751 317.781C362.575 307.814 363.464 293.328 363.251 272.33V60.585C363.251 30.9365 350.093 15.9497 330.12 12.1242C329.268 11.9575 328.75 11.0687 328.824 10.2537C328.907 9.29046 329.638 8.54966 330.805 8.54955H426.985C428.031 8.54955 428.67 9.07692 428.865 9.89187C429.059 10.7255 428.624 11.4855 427.725 11.7633C413.947 16.0333 400.984 27.806 400.984 57.4544V155.07L517.766 58.4639C535.684 43.2366 541.323 33.9184 541.323 24.5913C541.323 18.2467 535.424 13.2544 526.332 12.041C525.517 11.9391 524.794 11.068 524.943 10.2066C525.119 9.16956 526.128 8.56771 527.22 8.56764H619.725C621.743 8.56781 622.373 11.4854 620.465 12.1152C603.576 17.7189 571.037 33.6036 523.396 72.3293L426.957 151.967L588.084 318.91C601.9 332.174 621.799 341.159 636.781 344.336C637.744 344.53 638.272 345.466 638.161 346.308H638.133C638.022 347.216 637.299 347.939 636.179 347.939L572.112 348.263C565.241 348.263 562.759 346.383 553.213 336.482L400.975 178.911V294.987C400.975 324.626 426.392 341.251 442.717 344.382C443.689 344.567 444.208 345.568 444.041 346.448C443.874 347.3 442.995 347.929 441.977 347.929H252.043C250.737 347.929 250.042 347.55 249.857 346.957C249.672 346.337 249.978 345.679 250.977 345.336C257.561 343.095 266.256 338.01 267.515 327.006C268.682 316.836 266.904 305.554 253.718 275.952L226.717 212.153H98.555L95.1748 219.804L67.4511 284.64C51.8486 320.105 69.6923 340.871 80.5909 345.345C81.4242 345.688 81.9247 346.151 81.6932 346.948C81.471 347.717 80.4241 347.939 79.5166 347.939H2.02318C1.15289 347.939 0.365517 347.383 0.106141 346.707C-0.199427 345.892 0.161988 344.91 1.09721 344.484C21.1626 335.277 33.3947 315.938 44.3951 294.07L175.132 2.899C175.928 1.09284 176.595 0 177.845 0ZM106.092 195.138H219.514L164.067 64.1235L106.092 195.138Z" fill="white"/>
<path fill-rule="evenodd" clip-rule="evenodd" d="M1031.92 0C1033.24 0.0001122 1033.92 1.21343 1034.64 2.899L1036.1 6.35428V6.37237L1160.7 301.303C1171.25 325.265 1184.1 338.344 1199.01 344.466L1198.99 344.456C1200.77 345.188 1200.03 347.929 1198.11 347.929H1106.05C1104.74 347.929 1104.05 347.55 1103.87 346.957C1103.68 346.336 1103.99 345.679 1104.99 345.336C1111.57 343.095 1120.26 338.009 1121.52 327.006C1122.69 316.836 1120.91 305.554 1107.73 275.952L1079.95 210.301H953.452L949.248 219.804L921.524 284.64C905.922 320.105 923.765 340.871 934.664 345.345C935.497 345.688 935.998 346.151 935.766 346.948C935.544 347.717 934.497 347.939 933.589 347.939H856.096C855.226 347.939 854.438 347.383 854.179 346.707C853.873 345.892 854.235 344.91 855.17 344.484C875.235 335.277 887.468 315.938 898.468 294.07L1029.2 2.899C1030 1.09284 1030.67 0 1031.92 0ZM959.35 196.991H1074.32L1018.12 64.1877L959.35 196.991Z" fill="white"/>
</svg>
